#!OML:ASF H:\Terrain\Patient Classification 1\Animal1\Tuesday\Animal1.ASF
:FULLY-SPECIFIED
:DEGREES
918
root 11.1364 15.9237 -2.91493 1.21689 -36.1261 -362.959
lowerback 12.4813 -4.65918 -2.80463
upperback 0.471166 -6.40144 3.42717
thorax -5.76983 -3.04627 6.28115
lowerneck 6.71581 -1.50709 -10.8573
upperneck 13.9948 -3.97525 12.0555
head 3.44854 -2.23558 5.50153
rclavicle -8.02096e-014 3.22031e-014
rhumerus -0.783289 40.8417 31.0574
rradius 23.3015
rwrist -28.5996
rhand 65.1597 -17.574
rfingers 7.12502
rthumb 74.8833 33.8261
lclavicle -8.02096e-014 3.22031e-014
lhumerus -8.05636 -9.02443 -14.7227
lradius 24.7411
lwrist -46.7224
lhand 59.0021 74.7412
lfingers 7.12502
lthumb -105.646 225.81
rfemur -63.2604 -12.2958 15.0552
rtibia 97.1315
rfoot -11.6695 -15.584
rtoes 17.4081
lfemur -21.3351 18.5686 -27.4298
ltibia 44.3902
lfoot -30.8151 27.7663
ltoes 34.5036
919
root 11.1319 15.9348 -2.90754 1.24116 -36.3822 -362.97
lowerback 12.3548 -4.78948 -2.77456
upperback 0.462818 -6.56936 3.43045
thorax -5.69089 -3.13318 6.27887
lowerneck 6.71441 -1.41237 -10.5303
upperneck 14.2648 -3.80194 11.4924
head 3.50054 -2.1537 5.26991
rclavicle 7.49418e-014 -1.86858e-014
rhumerus 0.305843 38.8011 32.8827
rradius 23.2049
rwrist -27.481
rhand 62.5698 -17.4389
rfingers 7.12502
rthumb 74.9554 24.3405
lclavicle 7.49418e-014 -1.86858e-014
lhumerus -6.57412 -7.16839 -16.2153
lradius 24.8444
lwrist -47.0104
lhand 57.1126 73.4116
lfingers 7.12502
lthumb -106.268 230.725
rfemur -63.5208 -11.9826 14.9815
rtibia 96.8115
rfoot -12.0398 -15.3693
rtoes 19.4808
lfemur -21.3228 18.7003 -27.4063
ltibia 44.4012
lfoot -30.5259 27.9959
ltoes 33.9797
920
root 11.1232 15.9318 -2.90787 1.1241 -36.6901 -362.91
lowerback 12.4728 -4.8415 -2.85119
upperback 0.437304 -6.65188 3.41146
thorax -5.76723 -3.16837 6.32901
lowerneck 6.7131 -1.33069 -10.4688
upperneck 14.4664 -3.68152 11.2307
head 3.54526 -2.10177 5.17943
rclavicle 1.04859e-014 -7.55382e-015
rhumerus 0.561817 34.9032 33.9337
rradius 22.8635
rwrist -24.1459
rhand 60.9497 -16.0663
rfingers 7.12502
rthumb 74.7802 19.7541
lclavicle 1.04859e-014 -7.55382e-015
lhumerus -5.12952 -5.68549 -17.5964
lradius 24.9681
lwrist -46.7537
lhand 54.5198 71.9349
lfingers 7.12502
lthumb -107.414 236.943
rfemur -63.5309 -11.578 14.9101
rtibia 96.4508
rfoot -11.3083 -15.6291
rtoes 17.6452
lfemur -21.2234 18.9919 -27.3794
ltibia 44.413
lfoot -30.2512 28.2553
ltoes 33.4279
921
root 11.1161 15.9265 -2.90754 1.14441 -37.095 -362.955
lowerback 12.5666 -4.89777 -2.79485
upperback 0.361675 -6.72008 3.39676
thorax -5.89985 -3.19657 6.30905
lowerneck 6.39934 -1.29302 -10.6093
upperneck 15.015 -3.63771 11.0469
head 3.75804 -2.08811 5.14682
rclavicle -4.91992e-014 -2.62396e-014
rhumerus 0.898811 31.877 35.1356
rradius 22.6413
rwrist -21.8395
rhand 57.5784 -15.1062
rfingers 7.12502
rthumb 73.9029 9.07337
lclavicle -4.91992e-014 -2.62396e-014
lhumerus -3.89551 -3.64766 -18.7329
lradius 25.021
lwrist -46.8859
lhand 50.7719 70.4589
lfingers 7.12502
lthumb -109.551 244.707
rfemur -63.5781 -11.081 14.9439
rtibia 96.0724
rfoot -10.9495 -16.1707
rtoes 13.7487
lfemur -21.2149 19.1603 -27.3044
ltibia 44.4808
lfoot -30.3083 28.4645
ltoes 33.5812
922
root 11.1094 15.9258 -2.89973 1.17311 -37.5775 -362.774
lowerback 12.4821 -4.92853 -2.92996
upperback 0.231583 -6.77838 3.3979
thorax -5.96853 -3.2162 6.39451
lowerneck 6.38469 -1.20393 -10.4695
upperneck 15.2781 -3.485 10.5955
head 3.81897 -2.02435 4.98343
rclavicle -4.12478e-015 -2.5842e-014
rhumerus 1.49471 30.1919 36.6891
rradius 22.5632
rwrist -21.3398
rhand 51.9455 -13.9119
rfingers 7.12502
rthumb 71.17 -5.49958
lclavicle -4.12478e-015 -2.5842e-014
lhumerus -2.88988 -1.91501 -19.5568
lradius 25.0646
lwrist -46.6105
lhand 45.398 68.535
lfingers 7.12502
lthumb -113.311 252.623
rfemur -63.9396 -10.5935 14.7546
rtibia 95.7386
rfoot -10.7638 -16.4466
rtoes 11.6665
lfemur -21.3424 19.3029 -27.5026
ltibia 44.5709
lfoot -30.3131 28.7481
ltoes 33.6342
923
root 11.0965 15.9106 -2.88885 1.13095 -38.0724 -362.478
lowerback 12.3374 -4.91191 -3.24166
upperback 0.141708 -6.79655 3.43314
thorax -5.9409 -3.21575 6.59817
lowerneck 6.92306 -0.983478 -10.5506
upperneck 14.84 -3.2008 10.5477
head 3.56992 -1.90487 4.98861
rclavicle 1.90634e-013 -2.14687e-014
rhumerus 1.87621 28.0602 37.992
rradius 22.4019
rwrist -20.7938
rhand 44.5297 -12.9017
rfingers 7.12502
rthumb 66.0264 -18.2715
lclavicle 1.90634e-013 -2.14687e-014
lhumerus -2.05265 -0.854417 -20.3209
lradius 25.0857
lwrist -45.5933
lhand 38.5802 66.2625
lfingers 7.12502
lthumb -118.792 258.709
rfemur -64.384 -10.067 14.3881
rtibia 95.4546
rfoot -10.5866 -16.377
rtoes 11.7096
lfemur -21.4841 19.5465 -27.7742
ltibia 44.7373
lfoot -30.6807 28.7047
ltoes 34.1564
924
root 11.0838 15.9134 -2.88032 1.40768 -38.5795 -362.741
lowerback 12.2295 -4.88603 -3.09836
upperback 0.085503 -6.73663 3.49698
thorax -5.95699 -3.18829 6.56957
lowerneck 7.18134 -0.868981 -10.6217
upperneck 14.7052 -3.06852 10.5703
head 3.47427 -1.85098 5.01135
rclavicle 4.27387e-014 -1.59028e-014
rhumerus 1.83442 25.3933 38.6962
rradius 22.216
rwrist -19.7994
rhand 35.9562 -13.1404
rfingers 7.12502
rthumb 58.9671 -27.9612
lclavicle 4.27387e-014 -1.59028e-014
lhumerus -1.28616 0.494164 -21.1217
lradius 25.1074
lwrist -44.8343
lhand 30.6851 64.4173
lfingers 7.12502
lthumb -125.678 263.035
rfemur -64.4506 -9.35848 14.4776
rtibia 94.8653
rfoot -11.0446 -16.2499
rtoes 13.6375
lfemur -21.5639 19.8166 -27.5278
ltibia 44.8812
lfoot -31.2472 28.4478
ltoes 34.9339
